Coordinates
version=1
nRows=4
nColumns=114
inDegrees=yes

Units are S.I. units (second, meters, Newtons, ...)
If the header above contains a line with 'inDegrees', this indicates whether rotational values are in degrees (yes) or radians (no).

endheader 
time	pelvis_tilt	pelvis_list	pelvis_rotation	pelvis_tx	pelvis_ty	pelvis_tz	hip_flexion_l	hip_adduction_l	hip_rotation_l	hip_flexion_r	hip_adduction_r	hip_rotation_r	knee_angle_l	knee_angle_r	ankle_angle_l	ankle_angle_r	subtalar_angle_l	subtalar_angle_r	mtp_angle_l	mtp_angle_r	lumbar_extension	lumbar_bending	lumbar_rotation	arm_flex_l	arm_add_l	arm_rot_l	arm_flex_r	arm_add_r	arm_rot_r	elbow_flex_l	elbow_flex_r	pro_sup_l	pro_sup_r	addbrev_l/activation	addlong_l/activation	addmagDist_l/activation	addmagIsch_l/activation	addmagMid_l/activation	addmagProx_l/activation	bflh_l/activation	bfsh_l/activation	edl_l/activation	ehl_l/activation	fdl_l/activation	fhl_l/activation	gaslat_l/activation	gasmed_l/activation	glmax1_l/activation	glmax2_l/activation	glmax3_l/activation	glmed1_l/activation	glmed2_l/activation	glmed3_l/activation	glmin1_l/activation	glmin2_l/activation	glmin3_l/activation	grac_l/activation	iliacus_l/activation	perbrev_l/activation	perlong_l/activation	piri_l/activation	psoas_l/activation	recfem_l/activation	sart_l/activation	semimem_l/activation	semiten_l/activation	soleus_l/activation	tfl_l/activation	tibant_l/activation	tibpost_l/activation	vasint_l/activation	vaslat_l/activation	vasmed_l/activation	addbrev_r/activation	addlong_r/activation	addmagDist_r/activation	addmagIsch_r/activation	addmagMid_r/activation	addmagProx_r/activation	bflh_r/activation	bfsh_r/activation	edl_r/activation	ehl_r/activation	fdl_r/activation	fhl_r/activation	gaslat_r/activation	gasmed_r/activation	glmax1_r/activation	glmax2_r/activation	glmax3_r/activation	glmed1_r/activation	glmed2_r/activation	glmed3_r/activation	glmin1_r/activation	glmin2_r/activation	glmin3_r/activation	grac_r/activation	iliacus_r/activation	perbrev_r/activation	perlong_r/activation	piri_r/activation	psoas_r/activation	recfem_r/activation	sart_r/activation	semimem_r/activation	semiten_r/activation	soleus_r/activation	tfl_r/activation	tibant_r/activation	tibpost_r/activation	vasint_r/activation	vaslat_r/activation	vasmed_r/activation	
          2.40000000	          3.85652649	          3.49022543	         -0.76447912	          0.45365168	          0.92581003	         -0.24109705	         23.64164867	          2.22817688	         17.38288731	         -7.70844814	         -3.49192666	        -13.70563034	         20.53028229	         20.59291346	         -3.95367841	         20.28128508	        -19.60337301	         -1.62514067	         -0.33365197	        -17.24295010	        -16.72389806	          2.05204291	          4.40985295	         -0.41438543	         -6.51065679	         -8.76428025	          6.83756512	         -8.31808138	         -5.70578565	         20.44239999	         30.72476724	         84.72768988	         84.61590723	          0.58144963	          0.66720985	          0.33982173	          0.28398739	          0.45141323	          0.57313953	          0.28655369	          0.68378798	          0.78768304	          0.64548631	          0.40841500	          0.29516624	          0.23528065	          0.15063647	          0.46059165	          0.29628079	          0.22613567	          0.61069223	          0.58172416	          0.58499718	          0.62467310	          0.64067107	          0.63411341	          0.60325954	          0.79661080	          0.74576444	          0.77742278	          0.70341632	          0.80662809	          0.49517065	          0.73100515	          0.30733547	          0.47703898	          0.04769802	          0.66512148	          0.76450584	          0.16070390	          0.18541779	          0.06640477	          0.13894583	          0.27317675	          0.27787839	          0.22686147	          0.31866727	          0.22411367	          0.21150331	          0.14944379	          0.65564157	          0.60658628	          0.60677103	          0.54981597	          0.51228944	          0.46910079	          0.35137430	          0.18612259	          0.15895868	          0.09226344	          0.92639964	          0.37900012	          0.14760970	          0.87221263	          0.65667657	          0.36235111	          0.30693445	          0.83403208	          0.55508679	          0.51051263	          0.33990104	          0.58580565	          0.67681568	          0.68267200	          0.27206544	          0.33111088	          0.10357015	          0.83696614	          0.69946101	          0.50958210	          0.24819573	          0.09414086	          0.19350905	
          2.41000000	          3.47964926	          3.51038674	         -0.58301058	          0.45974231	          0.92445996	         -0.24195946	         24.03608913	          2.51731940	         17.69215003	         -7.78531868	         -3.53560327	        -13.96191724	         20.98324486	         20.55166233	         -4.07550660	         20.41641681	        -19.74888741	         -1.63035279	         -0.32740357	        -17.41547682	        -16.20495522	          1.90213740	          4.49421522	         -0.69047481	         -6.58482298	         -9.14523530	          6.81485491	         -8.41507103	         -5.76906033	         20.19896576	         31.25706909	         84.54996378	         84.60975519	          0.58071019	          0.66788430	          0.33838903	          0.28285666	          0.45096069	          0.57431016	          0.29045950	          0.68314336	          0.79119201	          0.64244180	          0.39941027	          0.28587059	          0.24309744	          0.16039487	          0.46714783	          0.30302039	          0.22856162	          0.59815171	          0.57594985	          0.58491444	          0.62142432	          0.63889609	          0.63306015	          0.60459193	          0.79724744	          0.75450661	          0.78676912	          0.70950816	          0.80939135	          0.49841183	          0.73310649	          0.30829830	          0.47811448	          0.04898512	          0.66622894	          0.74740904	          0.15141914	          0.18098091	          0.06474283	          0.13582766	          0.27344527	          0.28234307	          0.22534725	          0.31274207	          0.22312057	          0.21044520	          0.15278365	          0.65771761	          0.60544863	          0.60628323	          0.55044697	          0.51436810	          0.47737393	          0.36636610	          0.18524261	          0.15824904	          0.09148342	          0.92656151	          0.37341090	          0.14609500	          0.87311110	          0.65624935	          0.35825373	          0.30726126	          0.83741198	          0.55232790	          0.50713704	          0.34778970	          0.59132998	          0.68441367	          0.68532632	          0.26762219	          0.33069095	          0.10490084	          0.83717664	          0.69987757	          0.51344245	          0.24488054	          0.09208399	          0.18712980	
          2.42000000	          3.08875248	          3.52501516	         -0.42368162	          0.46603051	          0.92309074	         -0.24285664	         24.42239857	          2.79639734	         17.95483545	         -7.86295294	         -3.58180359	        -14.19530289	         21.55934615	         20.49457075	         -4.25975357	         20.52042624	        -19.98381942	         -1.60911929	         -0.32058564	        -17.62212266	        -15.65515733	          1.74492093	          4.58715672	         -0.99350316	         -6.65184761	         -9.53534423	          6.77287474	         -8.50696380	         -5.84186284	         19.94437509	         31.78302300	         84.35961314	         84.60044521	          0.57995450	          0.66511948	          0.33748150	          0.28007203	          0.45060638	          0.57530783	          0.29469189	          0.68262949	          0.79482296	          0.63993800	          0.39068257	          0.27630323	          0.24830921	          0.16752910	          0.47344315	          0.31014784	          0.23147581	          0.58612040	          0.57020680	          0.58425562	          0.61817313	          0.63676633	          0.63236902	          0.60577149	          0.79789628	          0.76194252	          0.79411050	          0.71601766	          0.81170358	          0.50172479	          0.73433754	          0.30958942	          0.47772839	          0.05004625	          0.66708538	          0.72929546	          0.14265488	          0.17827878	          0.06351264	          0.13359680	          0.27393209	          0.28493036	          0.22460361	          0.31535881	          0.22256171	          0.20942122	          0.14344514	          0.65737456	          0.60409017	          0.60551766	          0.55095428	          0.51659971	          0.48948664	          0.38934871	          0.18459737	          0.15793349	          0.09090414	          0.92652661	          0.36838686	          0.14448968	          0.87334798	          0.65479843	          0.35752744	          0.30691364	          0.83667717	          0.54959110	          0.50462805	          0.35533550	          0.59349224	          0.69097264	          0.68522317	          0.26396362	          0.32651062	          0.10585547	          0.83719400	          0.70035635	          0.51718545	          0.24544507	          0.09282790	          0.19105908	
          2.43000000	          2.69010774	          3.53480389	         -0.29361520	          0.47249354	          0.92170518	         -0.24376987	         24.78992957	          3.05840259	         18.16734526	         -7.94508852	         -3.63063273	        -14.39456362	         22.22750889	         20.42091878	         -4.48963009	         20.58755988	        -20.30153719	         -1.56824314	         -0.31309735	        -17.87086155	        -15.08799459	          1.57722968	          4.69345902	         -1.32125549	         -6.71237638	         -9.92663772	          6.72021031	         -8.59104968	         -5.92055791	         19.68238777	         32.29271286	         84.16081582	         84.58887745	          0.57722141	          0.66462539	          0.33595345	          0.27890915	          0.44918041	          0.57559193	          0.30080470	          0.68175173	          0.79831027	          0.63808175	          0.38294131	          0.26681984	          0.25047058	          0.17137750	          0.48247705	          0.32027295	          0.23481417	          0.57193899	          0.56427385	          0.58518169	          0.61438053	          0.63460923	          0.63047247	          0.60674547	          0.79747638	          0.76791217	          0.79942096	          0.72076145	          0.81346222	          0.50383855	          0.73675133	          0.31314609	          0.47995300	          0.05073158	          0.66695764	          0.71118055	          0.13458576	          0.17489597	          0.06239628	          0.13139068	          0.27498821	          0.29081428	          0.22374049	          0.31052607	          0.22211652	          0.20843856	          0.14904161	          0.65873914	          0.60230253	          0.60419913	          0.55122373	          0.51875945	          0.50380650	          0.41825813	          0.18324144	          0.15672124	          0.09014629	          0.92658388	          0.36155933	          0.14248123	          0.87385115	          0.65289290	          0.35132691	          0.30726521	          0.83942906	          0.54809814	          0.50428133	          0.36024790	          0.59789851	          0.70104373	          0.68676050	          0.25853544	          0.32639091	          0.10841479	          0.83696031	          0.69912217	          0.52023532	          0.24399995	          0.09142772	          0.18584088	
